<mxfile host="65bd71144e">
    <diagram id="tOi5Hj-FBMeHGcVLQEMJ" name="Page-1">
        <mxGraphModel dx="617" dy="2397" grid="1" gridSize="10" guides="1" tooltips="1" connect="1" arrows="1" fold="1" page="1" pageScale="1" pageWidth="850" pageHeight="1100" math="0" shadow="0">
            <root>
                <mxCell id="0"/>
                <mxCell id="1" parent="0"/>
                <mxCell id="4" value="" style="edgeStyle=none;html=1;" edge="1" parent="1" source="2" target="3">
                    <mxGeometry relative="1" as="geometry"/>
                </mxCell>
                <mxCell id="2" value="" style="rounded=0;whiteSpace=wrap;html=1;" vertex="1" parent="1">
                    <mxGeometry x="430" y="660" width="120" height="60" as="geometry"/>
                </mxCell>
                <mxCell id="3" value="" style="rounded=0;whiteSpace=wrap;html=1;horizontal=1;labelBackgroundColor=default;verticalAlign=middle;fontStyle=1;labelBorderColor=default;" vertex="1" parent="1">
                    <mxGeometry x="220" y="40" width="450" height="450" as="geometry"/>
                </mxCell>
                <mxCell id="5" value="KKKKKK&lt;br style=&quot;font-size: 100px;&quot;&gt;KK" style="shape=cylinder3;whiteSpace=wrap;html=1;boundedLbl=1;backgroundOutline=1;size=15;fillColor=none;fontFamily=Comic Sans MS;fontStyle=1;labelBackgroundColor=#1E1516;fontSize=100;" vertex="1" parent="1">
                    <mxGeometry x="275" y="540" width="340" height="510" as="geometry"/>
                </mxCell>
            </root>
        </mxGraphModel>
    </diagram>
</mxfile>